<mxfile host="drawio-plugin" modified="2024-01-24T13:20:56.101Z" agent="5.0 (Windows NT 6.2; Win64; x64) AppleWebKit/537.36 (KHTML, like Gecko) Chrome/104.0.5112.102 Safari/537.36" etag="bqmF-nsW64JaDVFIRg8K" version="20.5.3" type="embed"><diagram id="AYRRz6_bfFTV4ZAb6w4Y" name="Page-1"><mxGraphModel dx="890" dy="1633" grid="0" gridSize="10" guides="1" tooltips="1" connect="1" arrows="1" fold="1" page="0" pageScale="1" pageWidth="850" pageHeight="1100" math="0" shadow="0"><root><mxCell id="0"/><mxCell id="1" parent="0"/><mxCell id="42" style="edgeStyle=orthogonalEdgeStyle;rounded=0;orthogonalLoop=1;jettySize=auto;html=1;exitX=1;exitY=0.5;exitDx=0;exitDy=0;entryX=0;entryY=0.5;entryDx=0;entryDy=0;" edge="1" parent="1" source="2" target="41"><mxGeometry relative="1" as="geometry"/></mxCell><mxCell id="2" value="&lt;b&gt;start programm&lt;/b&gt;" style="ellipse;whiteSpace=wrap;html=1;aspect=fixed;fillColor=#008a00;fontColor=#ffffff;strokeColor=#005700;" parent="1" vertex="1"><mxGeometry x="133" y="-1151" width="80" height="80" as="geometry"/></mxCell><mxCell id="10" style="edgeStyle=orthogonalEdgeStyle;rounded=0;orthogonalLoop=1;jettySize=auto;html=1;exitX=1;exitY=0.5;exitDx=0;exitDy=0;entryX=0;entryY=0.5;entryDx=0;entryDy=0;" parent="1" source="4" target="6" edge="1"><mxGeometry relative="1" as="geometry"/></mxCell><mxCell id="4" value="&lt;b&gt;&amp;nbsp; &amp;nbsp; &amp;nbsp; &amp;nbsp;convert String&amp;nbsp; &amp;nbsp; &amp;nbsp; to char array&lt;/b&gt;" style="rounded=1;whiteSpace=wrap;html=1;fillColor=#808080;" parent="1" vertex="1"><mxGeometry x="174" y="397" width="120" height="40" as="geometry"/></mxCell><mxCell id="22" style="edgeStyle=orthogonalEdgeStyle;rounded=0;orthogonalLoop=1;jettySize=auto;html=1;exitX=1;exitY=0;exitDx=0;exitDy=0;entryX=0;entryY=0.5;entryDx=0;entryDy=0;" parent="1" source="5" target="7" edge="1"><mxGeometry relative="1" as="geometry"/></mxCell><mxCell id="24" style="edgeStyle=orthogonalEdgeStyle;rounded=0;orthogonalLoop=1;jettySize=auto;html=1;exitX=0;exitY=1;exitDx=0;exitDy=0;entryX=0.5;entryY=0;entryDx=0;entryDy=0;" parent="1" source="5" target="25" edge="1"><mxGeometry relative="1" as="geometry"><mxPoint x="62" y="597" as="targetPoint"/></mxGeometry></mxCell><mxCell id="5" value="&amp;nbsp; &amp;nbsp; &amp;nbsp; &amp;nbsp; &amp;nbsp; &amp;nbsp;if char == ({[&amp;nbsp; &amp;nbsp; &amp;nbsp; &amp;nbsp; &amp;nbsp; &amp;nbsp; &amp;nbsp; &amp;nbsp; &amp;nbsp; &amp;nbsp; &amp;nbsp; &amp;nbsp; &amp;nbsp; &amp;nbsp; &amp;nbsp; &amp;nbsp; &amp;nbsp; &amp;nbsp; &amp;nbsp; &amp;nbsp; &amp;nbsp; &amp;nbsp; &amp;nbsp;!contains char" style="rhombus;whiteSpace=wrap;html=1;fillColor=#808080;" parent="1" vertex="1"><mxGeometry x="24" y="477" width="150" height="80" as="geometry"/></mxCell><mxCell id="11" style="edgeStyle=orthogonalEdgeStyle;rounded=0;orthogonalLoop=1;jettySize=auto;html=1;exitX=0.5;exitY=1;exitDx=0;exitDy=0;entryX=0.5;entryY=0;entryDx=0;entryDy=0;" parent="1" source="6" target="5" edge="1"><mxGeometry relative="1" as="geometry"/></mxCell><mxCell id="6" value="&lt;b&gt;running throw array search for ({[&lt;/b&gt;" style="rounded=1;whiteSpace=wrap;html=1;fillColor=#808080;" parent="1" vertex="1"><mxGeometry x="344" y="397" width="120" height="40" as="geometry"/></mxCell><mxCell id="14" style="edgeStyle=orthogonalEdgeStyle;rounded=0;orthogonalLoop=1;jettySize=auto;html=1;exitX=1;exitY=0.5;exitDx=0;exitDy=0;entryX=0;entryY=0.5;entryDx=0;entryDy=0;" parent="1" source="7" target="13" edge="1"><mxGeometry relative="1" as="geometry"/></mxCell><mxCell id="7" value="&lt;b&gt;running throw array reverse search for )}]&lt;/b&gt;" style="whiteSpace=wrap;html=1;fillColor=#808080;rounded=1;" parent="1" vertex="1"><mxGeometry x="234" y="467" width="120" height="60" as="geometry"/></mxCell><mxCell id="26" style="edgeStyle=orthogonalEdgeStyle;rounded=0;orthogonalLoop=1;jettySize=auto;html=1;exitX=0.5;exitY=1;exitDx=0;exitDy=0;entryX=0.5;entryY=0;entryDx=0;entryDy=0;" parent="1" source="13" target="17" edge="1"><mxGeometry relative="1" as="geometry"/></mxCell><mxCell id="13" value="&lt;b&gt;if char == )}]&lt;/b&gt;" style="rhombus;whiteSpace=wrap;html=1;fillColor=#808080;" parent="1" vertex="1"><mxGeometry x="414" y="497" width="100" height="40" as="geometry"/></mxCell><mxCell id="15" value="&lt;b&gt;char i &amp;amp;&amp;amp; j == 's'&lt;/b&gt;" style="rounded=1;whiteSpace=wrap;html=1;fillColor=#808080;" parent="1" vertex="1"><mxGeometry x="539" y="678" width="120" height="40" as="geometry"/></mxCell><mxCell id="18" style="edgeStyle=orthogonalEdgeStyle;rounded=0;orthogonalLoop=1;jettySize=auto;html=1;exitX=1;exitY=0.5;exitDx=0;exitDy=0;entryX=0;entryY=0.5;entryDx=0;entryDy=0;" parent="1" source="17" target="15" edge="1"><mxGeometry relative="1" as="geometry"/></mxCell><mxCell id="37" value="true" style="edgeLabel;html=1;align=center;verticalAlign=middle;resizable=0;points=[];" parent="18" vertex="1" connectable="0"><mxGeometry x="-0.1819" y="-3" relative="1" as="geometry"><mxPoint as="offset"/></mxGeometry></mxCell><mxCell id="33" style="edgeStyle=orthogonalEdgeStyle;rounded=0;orthogonalLoop=1;jettySize=auto;html=1;exitX=0;exitY=1;exitDx=0;exitDy=0;entryX=1;entryY=0.5;entryDx=0;entryDy=0;" parent="1" source="17" target="27" edge="1"><mxGeometry relative="1" as="geometry"><mxPoint x="244" y="771" as="targetPoint"/><Array as="points"><mxPoint x="244" y="768"/></Array></mxGeometry></mxCell><mxCell id="36" value="false" style="edgeLabel;html=1;align=center;verticalAlign=middle;resizable=0;points=[];" parent="33" vertex="1" connectable="0"><mxGeometry x="-0.4875" y="-5" relative="1" as="geometry"><mxPoint as="offset"/></mxGeometry></mxCell><mxCell id="17" value="&lt;b&gt;&amp;nbsp; &amp;nbsp; &amp;nbsp; &amp;nbsp; &amp;nbsp; &amp;nbsp;isMatchingBrackets() ==&amp;nbsp; &amp;nbsp; &amp;nbsp; &amp;nbsp; &amp;nbsp; &amp;nbsp; &amp;nbsp; &amp;nbsp; &amp;nbsp; false&amp;nbsp; &amp;nbsp; &amp;nbsp; &amp;nbsp; &amp;nbsp; &amp;nbsp; &amp;nbsp; &amp;nbsp; &amp;nbsp; &amp;nbsp; &amp;nbsp; &amp;nbsp; &amp;nbsp; &amp;nbsp; &amp;nbsp; &amp;nbsp; &amp;nbsp; &amp;nbsp;true&lt;/b&gt;" style="rhombus;whiteSpace=wrap;html=1;fillColor=#808080;" parent="1" vertex="1"><mxGeometry x="186" y="562" width="240" height="100" as="geometry"/></mxCell><mxCell id="21" value="" style="endArrow=classic;html=1;rounded=0;entryX=1;entryY=0.5;entryDx=0;entryDy=0;exitX=0.5;exitY=0;exitDx=0;exitDy=0;" parent="1" source="15" target="6" edge="1"><mxGeometry width="50" height="50" relative="1" as="geometry"><mxPoint x="524" y="437" as="sourcePoint"/><mxPoint x="564" y="407" as="targetPoint"/><Array as="points"><mxPoint x="534" y="417"/></Array></mxGeometry></mxCell><mxCell id="29" style="edgeStyle=orthogonalEdgeStyle;rounded=0;orthogonalLoop=1;jettySize=auto;html=1;exitX=0.5;exitY=1;exitDx=0;exitDy=0;entryX=0;entryY=0.5;entryDx=0;entryDy=0;" parent="1" source="25" target="27" edge="1"><mxGeometry relative="1" as="geometry"><mxPoint x="110" y="779" as="targetPoint"/><Array as="points"><mxPoint x="62" y="768"/></Array></mxGeometry></mxCell><mxCell id="25" value="&lt;b&gt;&amp;nbsp; &amp;nbsp;TRUE || BRRACKETS ARE GOOD&lt;/b&gt;" style="shape=parallelogram;perimeter=parallelogramPerimeter;whiteSpace=wrap;html=1;fixedSize=1;fillColor=#008a00;fontColor=#ffffff;strokeColor=#005700;" parent="1" vertex="1"><mxGeometry x="-13" y="629" width="150" height="55.71" as="geometry"/></mxCell><mxCell id="27" value="stop programm" style="ellipse;whiteSpace=wrap;html=1;aspect=fixed;fillColor=#a20025;fontColor=#ffffff;strokeColor=#6F0000;" parent="1" vertex="1"><mxGeometry x="147" y="732" width="72" height="72" as="geometry"/></mxCell><mxCell id="44" style="edgeStyle=orthogonalEdgeStyle;rounded=0;orthogonalLoop=1;jettySize=auto;html=1;exitX=1;exitY=0.5;exitDx=0;exitDy=0;entryX=0;entryY=0.25;entryDx=0;entryDy=0;" edge="1" parent="1" source="41" target="43"><mxGeometry relative="1" as="geometry"/></mxCell><mxCell id="41" value="&lt;b&gt;entering the lettering with scanner&lt;/b&gt;" style="rounded=1;whiteSpace=wrap;html=1;strokeColor=#F0F0F0;fillColor=#4D4D4D;" vertex="1" parent="1"><mxGeometry x="268" y="-1138" width="94" height="53" as="geometry"/></mxCell><mxCell id="99" style="edgeStyle=orthogonalEdgeStyle;rounded=0;orthogonalLoop=1;jettySize=auto;html=1;exitX=1;exitY=0.25;exitDx=0;exitDy=0;entryX=0;entryY=0.25;entryDx=0;entryDy=0;" edge="1" parent="1" source="43" target="46"><mxGeometry relative="1" as="geometry"/></mxCell><mxCell id="43" value="&lt;b&gt;checking brackets (lettering)&lt;/b&gt;" style="rounded=1;whiteSpace=wrap;html=1;strokeColor=#FFFFFF;fillColor=#4D4D4D;" vertex="1" parent="1"><mxGeometry x="424" y="-1122" width="120" height="45" as="geometry"/></mxCell><mxCell id="46" value="&lt;b&gt;creating stack&lt;/b&gt;" style="rounded=1;whiteSpace=wrap;html=1;fillColor=#4D4D4D;" vertex="1" parent="1"><mxGeometry x="596" y="-1119" width="90" height="30" as="geometry"/></mxCell><mxCell id="48" value="&lt;b&gt;creating loop; making charArray from lettering; searching in loop {([&lt;/b&gt;" style="rounded=1;whiteSpace=wrap;html=1;fillColor=#4D4D4D;" vertex="1" parent="1"><mxGeometry x="281" y="-1037" width="146" height="58" as="geometry"/></mxCell><mxCell id="49" value="" style="endArrow=classic;html=1;rounded=0;entryX=1;entryY=0;entryDx=0;entryDy=0;exitX=0;exitY=1;exitDx=0;exitDy=0;" edge="1" parent="1" source="46" target="48"><mxGeometry width="50" height="50" relative="1" as="geometry"><mxPoint x="485" y="-1046" as="sourcePoint"/><mxPoint x="535" y="-1096" as="targetPoint"/></mxGeometry></mxCell><mxCell id="50" value="&lt;b&gt;if&lt;/b&gt;" style="rhombus;whiteSpace=wrap;html=1;" vertex="1" parent="1"><mxGeometry x="582" y="-1071" width="50" height="46" as="geometry"/></mxCell><mxCell id="51" value="stack.push(char)" style="rounded=1;whiteSpace=wrap;html=1;fillColor=#4D4D4D;" vertex="1" parent="1"><mxGeometry x="334" y="-915" width="106" height="34" as="geometry"/></mxCell><mxCell id="52" value="" style="endArrow=classic;html=1;rounded=0;entryX=1;entryY=0;entryDx=0;entryDy=0;exitX=0;exitY=0.5;exitDx=0;exitDy=0;" edge="1" parent="1" source="50" target="51"><mxGeometry width="50" height="50" relative="1" as="geometry"><mxPoint x="529" y="-889" as="sourcePoint"/><mxPoint x="579" y="-939" as="targetPoint"/></mxGeometry></mxCell><mxCell id="53" value="char == ({[" style="edgeLabel;html=1;align=center;verticalAlign=middle;resizable=0;points=[];" vertex="1" connectable="0" parent="52"><mxGeometry x="-0.1597" y="-2" relative="1" as="geometry"><mxPoint as="offset"/></mxGeometry></mxCell><mxCell id="70" style="edgeStyle=orthogonalEdgeStyle;rounded=0;orthogonalLoop=1;jettySize=auto;html=1;exitX=0;exitY=0.5;exitDx=0;exitDy=0;entryX=1;entryY=0;entryDx=0;entryDy=0;" edge="1" parent="1" source="64" target="69"><mxGeometry relative="1" as="geometry"/></mxCell><mxCell id="64" value="&lt;b&gt;ch = stack.pop();&lt;/b&gt;" style="rounded=1;whiteSpace=wrap;html=1;fillColor=#4D4D4D;" vertex="1" parent="1"><mxGeometry x="576.78" y="-863" width="120" height="28" as="geometry"/></mxCell><mxCell id="66" value="" style="endArrow=none;html=1;rounded=0;exitX=1;exitY=0.5;exitDx=0;exitDy=0;entryX=0.5;entryY=0;entryDx=0;entryDy=0;" edge="1" parent="1" source="50"><mxGeometry width="50" height="50" relative="1" as="geometry"><mxPoint x="629" y="-1003" as="sourcePoint"/><mxPoint x="634" y="-962" as="targetPoint"/><Array as="points"/></mxGeometry></mxCell><mxCell id="67" value="char == )}]" style="edgeLabel;html=1;align=center;verticalAlign=middle;resizable=0;points=[];" vertex="1" connectable="0" parent="1"><mxGeometry x="636.7773536381567" y="-968.9966277015316" as="geometry"/></mxCell><mxCell id="69" value="&lt;b&gt;if&lt;/b&gt;" style="rhombus;whiteSpace=wrap;html=1;" vertex="1" parent="1"><mxGeometry x="350" y="-805" width="42" height="32" as="geometry"/></mxCell><mxCell id="71" value="end programm" style="ellipse;whiteSpace=wrap;html=1;aspect=fixed;fillColor=#a20025;fontColor=#ffffff;strokeColor=#6F0000;" vertex="1" parent="1"><mxGeometry x="825" y="-954" width="68" height="68" as="geometry"/></mxCell><mxCell id="72" value="return false;" style="shape=parallelogram;perimeter=parallelogramPerimeter;whiteSpace=wrap;html=1;fixedSize=1;fillColor=#CC0000;" vertex="1" parent="1"><mxGeometry x="629" y="-689" width="104" height="34" as="geometry"/></mxCell><mxCell id="74" value="&lt;b style=&quot;&quot;&gt;if stack.isEmpty;&lt;/b&gt;" style="text;html=1;align=center;verticalAlign=middle;resizable=0;points=[];autosize=1;strokeColor=none;fillColor=none;" vertex="1" parent="1"><mxGeometry x="573" y="-929" width="113" height="26" as="geometry"/></mxCell><mxCell id="77" value="" style="endArrow=classic;html=1;rounded=0;entryX=0.579;entryY=-0.031;entryDx=0;entryDy=0;entryPerimeter=0;" edge="1" parent="1" target="74"><mxGeometry width="50" height="50" relative="1" as="geometry"><mxPoint x="629" y="-963" as="sourcePoint"/><mxPoint x="629" y="-930" as="targetPoint"/></mxGeometry></mxCell><mxCell id="78" value="" style="endArrow=classic;html=1;rounded=0;exitX=1.012;exitY=0.623;exitDx=0;exitDy=0;exitPerimeter=0;entryX=0.86;entryY=0.006;entryDx=0;entryDy=0;entryPerimeter=0;" edge="1" parent="1" source="74" target="72"><mxGeometry x="0.3437" y="-74" width="50" height="50" relative="1" as="geometry"><mxPoint x="716" y="-919" as="sourcePoint"/><mxPoint x="794" y="-922" as="targetPoint"/><Array as="points"><mxPoint x="739" y="-913"/></Array><mxPoint as="offset"/></mxGeometry></mxCell><mxCell id="79" value="" style="endArrow=classic;html=1;rounded=0;exitX=0.543;exitY=1.008;exitDx=0;exitDy=0;exitPerimeter=0;entryX=0.5;entryY=0;entryDx=0;entryDy=0;" edge="1" parent="1" source="74" target="64"><mxGeometry width="50" height="50" relative="1" as="geometry"><mxPoint x="762" y="-693" as="sourcePoint"/><mxPoint x="812" y="-743" as="targetPoint"/></mxGeometry></mxCell><mxCell id="82" value="&lt;b style=&quot;&quot;&gt;&amp;amp;&amp;amp; ch != ({[&lt;/b&gt;" style="text;html=1;align=center;verticalAlign=middle;resizable=0;points=[];autosize=1;strokeColor=none;fillColor=none;" vertex="1" parent="1"><mxGeometry x="506" y="-775" width="83" height="26" as="geometry"/></mxCell><mxCell id="84" value="&lt;b&gt;if char == )}]&lt;/b&gt;" style="text;html=1;align=center;verticalAlign=middle;resizable=0;points=[];autosize=1;strokeColor=none;fillColor=none;" vertex="1" parent="1"><mxGeometry x="504" y="-792" width="87" height="26" as="geometry"/></mxCell><mxCell id="85" value="" style="endArrow=classic;html=1;rounded=0;exitX=1;exitY=0.5;exitDx=0;exitDy=0;" edge="1" parent="1" source="69"><mxGeometry width="50" height="50" relative="1" as="geometry"><mxPoint x="542" y="-806" as="sourcePoint"/><mxPoint x="513" y="-769" as="targetPoint"/></mxGeometry></mxCell><mxCell id="86" value="sout bad lettering" style="endArrow=classic;html=1;rounded=0;exitX=1.027;exitY=0.308;exitDx=0;exitDy=0;exitPerimeter=0;entryX=0.25;entryY=0;entryDx=0;entryDy=0;" edge="1" parent="1" target="72"><mxGeometry x="1" y="170" width="50" height="50" relative="1" as="geometry"><mxPoint x="589.241" y="-764.992" as="sourcePoint"/><mxPoint x="632" y="-739" as="targetPoint"/><mxPoint x="12" y="15" as="offset"/></mxGeometry></mxCell><mxCell id="88" value="else" style="endArrow=classic;html=1;rounded=0;entryX=0;entryY=1;entryDx=0;entryDy=0;" edge="1" parent="1" target="48"><mxGeometry x="-0.3774" y="-1" width="50" height="50" relative="1" as="geometry"><mxPoint x="348" y="-790" as="sourcePoint"/><mxPoint x="262" y="-831" as="targetPoint"/><Array as="points"><mxPoint x="264" y="-790"/></Array><mxPoint as="offset"/></mxGeometry></mxCell><mxCell id="91" value="" style="endArrow=classic;html=1;rounded=0;exitX=1;exitY=0;exitDx=0;exitDy=0;entryX=0.5;entryY=1;entryDx=0;entryDy=0;" edge="1" parent="1" source="72" target="71"><mxGeometry width="50" height="50" relative="1" as="geometry"><mxPoint x="747" y="-693" as="sourcePoint"/><mxPoint x="797" y="-743" as="targetPoint"/></mxGeometry></mxCell><mxCell id="93" value="" style="endArrow=none;html=1;rounded=0;exitX=1;exitY=0.5;exitDx=0;exitDy=0;" edge="1" parent="1" source="50"><mxGeometry width="50" height="50" relative="1" as="geometry"><mxPoint x="723" y="-1016" as="sourcePoint"/><mxPoint x="867" y="-1046" as="targetPoint"/></mxGeometry></mxCell><mxCell id="94" value="stack.isEmpty and loop is over" style="edgeLabel;html=1;align=center;verticalAlign=middle;resizable=0;points=[];" vertex="1" connectable="0" parent="93"><mxGeometry x="-0.2101" y="-1" relative="1" as="geometry"><mxPoint x="20" y="-2" as="offset"/></mxGeometry></mxCell><mxCell id="95" value="sout good lettering" style="endArrow=classic;html=1;rounded=0;entryX=0.5;entryY=0;entryDx=0;entryDy=0;" edge="1" parent="1" target="71"><mxGeometry width="50" height="50" relative="1" as="geometry"><mxPoint x="866" y="-1044" as="sourcePoint"/><mxPoint x="822" y="-997" as="targetPoint"/></mxGeometry></mxCell><mxCell id="97" value="" style="endArrow=classic;html=1;rounded=0;entryX=0;entryY=0.5;entryDx=0;entryDy=0;exitX=1;exitY=0.5;exitDx=0;exitDy=0;" edge="1" parent="1" source="48" target="50"><mxGeometry width="50" height="50" relative="1" as="geometry"><mxPoint x="402" y="-646" as="sourcePoint"/><mxPoint x="452" y="-696" as="targetPoint"/></mxGeometry></mxCell><mxCell id="98" value="" style="endArrow=classic;html=1;rounded=0;" edge="1" parent="1" source="51"><mxGeometry width="50" height="50" relative="1" as="geometry"><mxPoint x="323" y="-629" as="sourcePoint"/><mxPoint x="387" y="-978" as="targetPoint"/></mxGeometry></mxCell></root></mxGraphModel></diagram></mxfile>